<?xml version="1.0" standalone="no"?>
<!DOCTYPE svg PUBLIC "-//W3C//DTD SVG 20010904//EN"
 "http://www.w3.org/TR/2001/REC-SVG-20010904/DTD/svg10.dtd">
<svg version="1.0" xmlns="http://www.w3.org/2000/svg"
 width="626.000000pt" height="417.000000pt" viewBox="0 0 626.000000 417.000000"
 preserveAspectRatio="xMidYMid meet">

<g transform="translate(0.000000,417.000000) scale(0.100000,-0.100000)"
fill="#000000" stroke="none">
<path d="M3179 4113 c-13 -17 -124 -49 -113 -32 10 17 -31 27 -56 13 -14 -7
-33 -13 -42 -14 -10 0 -18 -4 -18 -8 0 -13 -90 -51 -135 -57 -67 -10 -165 -37
-165 -46 0 -5 -7 -9 -15 -9 -26 0 -125 -54 -125 -68 0 -9 6 -12 15 -8 8 3 22
9 30 12 8 3 15 1 15 -5 0 -12 -33 -21 -70 -18 -17 1 -24 -3 -22 -12 2 -8 -3
-11 -12 -8 -7 3 -23 -5 -35 -17 -21 -23 -29 -42 -12 -31 5 3 22 -6 37 -20 15
-14 21 -25 14 -25 -8 0 -10 -8 -7 -21 4 -16 0 -23 -14 -26 -16 -5 -18 -8 -7
-14 8 -6 -1 -9 -25 -9 -31 0 -40 4 -44 20 -4 15 -11 19 -24 15 -14 -5 -17 -2
-13 9 9 25 -2 19 -21 -11 -17 -25 -17 -27 1 -40 18 -13 17 -14 -6 -8 -21 5
-29 -1 -50 -37 -14 -24 -26 -46 -28 -49 -1 -3 11 -6 28 -7 16 0 30 4 30 10 0
6 3 8 7 5 3 -4 14 4 23 17 19 31 41 20 44 -20 1 -16 7 -39 14 -51 19 -34 -1
-28 -21 7 -10 17 -13 30 -8 30 6 0 11 4 11 9 0 5 -12 6 -27 2 -21 -6 -27 -13
-28 -39 -1 -20 5 -38 17 -49 10 -9 18 -23 18 -31 0 -9 10 -27 23 -40 l22 -24
-24 7 c-16 5 -21 4 -17 -4 10 -16 -7 -13 -30 5 -16 13 -16 15 -1 10 9 -3 17
-2 17 1 0 4 -8 15 -17 26 -17 19 -17 20 0 14 16 -6 16 -4 -3 23 -22 31 -67 43
-56 15 3 -9 0 -15 -10 -15 -8 0 -13 -4 -10 -8 2 -4 1 -14 -4 -22 -5 -9 -1 -19
13 -31 21 -17 21 -17 -23 -9 -47 9 -73 -1 -64 -24 3 -7 -5 -21 -16 -31 -22
-20 -13 -35 22 -35 14 0 16 4 8 24 -7 18 -5 28 9 40 27 25 40 20 36 -14 -3
-21 2 -37 15 -50 11 -11 15 -22 9 -25 -5 -4 -6 -11 -3 -17 4 -6 3 -9 -2 -6 -5
3 -19 2 -32 -3 -21 -8 -22 -10 -8 -30 8 -12 13 -26 10 -33 -2 -6 10 -17 26
-25 17 -7 29 -15 27 -18 -3 -2 -14 1 -26 8 -23 15 -38 6 -25 -14 5 -7 2 -5 -8
5 -22 25 -25 23 -20 -12 3 -21 13 -35 33 -46 37 -19 37 -25 0 -22 -16 1 -29 7
-28 13 1 5 -11 9 -28 8 -23 -2 -27 0 -15 8 11 8 12 12 3 16 -7 2 -13 11 -13
19 0 9 -4 13 -9 10 -13 -9 -19 16 -10 40 7 21 3 34 -11 34 -10 0 -30 -50 -30
-75 -1 -61 -6 -95 -12 -95 -5 0 -8 -11 -8 -25 0 -14 -5 -25 -12 -25 -9 0 -9
-3 -1 -11 6 -6 9 -18 6 -25 -3 -9 2 -14 12 -14 14 0 15 -3 6 -14 -14 -17 0
-24 41 -21 23 2 26 -1 17 -17 -5 -10 -15 -15 -21 -12 -6 4 -8 3 -4 -4 3 -6 -2
-15 -11 -21 -10 -5 -15 -13 -11 -16 4 -4 17 2 29 14 21 19 24 20 41 5 16 -16
18 -15 23 2 13 41 40 86 57 95 13 7 18 6 16 -3 -2 -7 -12 -17 -22 -23 -26 -14
-32 -35 -9 -31 41 9 48 11 55 21 4 5 2 15 -3 21 -7 9 -4 14 10 19 12 3 33 22
47 41 18 23 35 34 53 34 14 1 44 8 66 16 29 10 98 16 245 18 113 3 252 9 310
15 58 6 119 8 137 5 18 -3 41 -3 50 1 10 4 27 9 38 11 37 5 122 32 153 48 17
9 41 16 54 16 13 0 41 7 63 16 22 8 48 17 57 20 10 4 15 10 12 15 -3 5 0 9 6
9 7 0 10 7 6 15 -3 8 -1 15 4 15 5 0 10 -10 12 -22 2 -18 8 -22 28 -20 14 2
27 8 28 13 2 5 9 6 14 2 7 -4 9 2 6 15 -4 12 -2 22 3 22 5 0 9 -8 9 -19 0 -20
40 -41 75 -40 125 4 202 -23 245 -86 16 -23 32 -54 36 -68 3 -15 10 -27 15
-27 5 0 9 -6 9 -13 0 -7 16 -27 35 -44 19 -17 35 -38 35 -47 0 -9 3 -16 8 -16
4 0 15 -18 25 -40 9 -22 19 -40 22 -40 2 0 2 6 0 13 -4 8 5 12 25 13 16 1 27
-3 24 -7 -8 -13 9 -10 29 5 14 11 15 16 6 22 -9 5 -6 10 8 15 17 6 21 16 21
53 0 25 -4 46 -9 46 -6 0 -6 7 0 18 6 10 7 29 4 42 -4 16 -3 21 5 16 8 -5 10
-2 6 8 -3 9 -14 16 -23 16 -10 0 -12 3 -5 8 19 13 22 36 7 66 -14 26 -14 28 2
22 11 -4 15 -2 13 6 -3 7 -10 13 -16 12 -7 -1 -21 -2 -33 -2 -11 -1 -18 -6
-15 -11 7 -11 -20 -25 -58 -30 -5 0 -1 -10 9 -21 23 -26 11 -26 -17 -1 -11 11
-28 17 -37 14 -10 -3 -12 -2 -5 4 19 15 23 52 6 62 -13 7 -13 9 5 15 10 3 30
20 42 37 21 28 21 32 7 48 -20 22 -20 30 0 52 12 14 13 22 4 39 -7 12 -18 19
-26 16 -8 -3 -14 -1 -14 3 0 5 7 12 16 15 19 7 11 61 -13 88 -15 16 -17 16
-36 -8 -13 -17 -23 -22 -30 -15 -7 7 -6 15 3 26 7 8 8 15 4 15 -5 0 -15 -9
-22 -20 -7 -12 -17 -18 -21 -15 -15 9 -19 -19 -4 -30 12 -9 10 -11 -7 -12 -12
-1 -38 -14 -58 -30 -20 -15 -37 -26 -38 -23 0 3 -13 -8 -27 -25 -20 -22 -25
-25 -21 -10 4 11 16 30 27 43 25 27 9 30 -19 3 -11 -10 -29 -21 -40 -25 -10
-3 -28 -19 -39 -36 -11 -16 -23 -30 -27 -30 -4 0 -14 -7 -22 -16 -15 -14 -16
-14 -16 5 0 12 -5 21 -12 21 -16 0 28 37 63 52 16 7 29 20 30 28 0 10 2 11 6
3 11 -29 132 59 133 97 0 13 -1 13 -11 0 -7 -11 -8 -6 -4 20 4 19 14 42 22 50
14 13 15 13 8 0 -6 -10 -5 -12 3 -5 6 6 12 28 14 50 2 22 8 47 13 54 5 10 4
12 -3 7 -14 -9 -15 3 -2 24 8 12 10 12 16 -3 3 -9 3 -25 0 -34 -6 -15 -5 -15
13 1 11 10 27 16 36 12 13 -4 14 -2 5 14 -6 11 -17 20 -25 20 -8 0 -15 7 -15
14 0 22 -60 107 -71 101 -5 -4 -9 -2 -9 3 0 5 -11 14 -25 20 -14 6 -25 18 -25
25 0 16 -41 57 -57 57 -7 0 -55 22 -108 49 -96 50 -169 67 -183 44 -6 -9 -21
-5 -57 12 -53 25 -118 36 -150 25 -11 -4 -34 -4 -52 0 -22 5 -31 4 -26 -3 4
-7 -7 -8 -32 -4 -21 3 -42 11 -45 18 -5 7 -12 5 -21 -8z m715 -199 c9 -24 2
-26 -12 -4 -7 11 -8 20 -3 20 5 0 12 -7 15 -16z m-1397 -80 c-3 -3 -12 -4 -19
-1 -8 3 -5 6 6 6 11 1 17 -2 13 -5z m56 -36 c-4 -7 -8 -19 -9 -26 -2 -8 -6
-17 -10 -20 -4 -4 -5 1 -1 10 3 9 0 19 -9 22 -23 9 -16 26 12 26 18 0 23 -4
17 -12z m1298 -109 c-12 -40 -21 -85 -21 -99 0 -17 -3 -21 -9 -12 -6 10 -18 0
-45 -37 -20 -28 -36 -58 -36 -66 0 -8 -5 -14 -12 -12 -12 2 -13 -3 -16 -50 -1
-13 -7 -23 -13 -23 -5 0 -7 5 -3 12 4 7 3 8 -5 4 -6 -4 -9 -15 -7 -24 3 -10 1
-24 -5 -32 -9 -12 -10 -12 -5 4 5 13 2 17 -8 13 -20 -8 -28 3 -15 20 6 7 8 13
4 13 -4 0 5 17 21 37 15 20 29 46 30 57 4 32 4 32 13 17 16 -25 77 71 95 151
9 40 24 90 34 112 15 36 17 37 20 14 2 -13 -6 -58 -17 -99z m102 46 c-3 -9 -8
-14 -10 -11 -3 3 -2 9 2 15 9 16 15 13 8 -4z m-3 -34 c0 -5 -4 -21 -10 -35 -6
-16 -6 -27 0 -31 6 -4 10 -12 10 -18 0 -7 -4 -6 -10 3 -8 13 -10 13 -10 1 0
-11 -3 -12 -10 -5 -7 7 -8 19 -1 36 5 14 7 29 4 32 -4 3 -1 6 6 6 7 0 9 5 6
10 -3 6 -1 10 4 10 6 0 11 -4 11 -9z m-205 -58 c-4 -27 -8 -61 -9 -78 -1 -20
-6 -30 -17 -30 -9 0 -23 -6 -31 -12 -11 -10 -16 -8 -26 8 -7 10 -8 19 -3 19 6
0 13 -5 16 -10 10 -16 25 -1 25 26 0 13 4 24 8 24 5 0 14 23 21 50 16 63 26
65 16 3z m-1336 -26 c0 -18 -3 -25 -6 -17 -3 8 -17 26 -31 39 -15 13 -21 20
-14 17 6 -4 12 -2 12 4 0 8 6 8 20 0 14 -7 20 -20 19 -43z m1173 -1 c3 -14 1
-31 -3 -38 -6 -8 -9 1 -9 25 0 42 6 48 12 13z m208 4 c0 -20 -37 -66 -46 -57
-6 6 29 76 39 77 4 0 7 -9 7 -20z m-146 -86 c14 -15 26 -31 26 -36 0 -5 5 -6
10 -3 19 12 10 -31 -9 -45 -11 -7 -17 -18 -14 -23 3 -5 0 -8 -7 -5 -7 2 -15
15 -17 28 -4 29 -13 40 -13 16 0 -10 -6 -16 -12 -13 -14 4 -16 52 -3 81 6 14
5 17 -3 12 -7 -4 -12 -2 -12 3 0 19 27 12 54 -15z m-1208 -11 c-7 -7 -26 7
-26 19 0 6 6 6 15 -2 9 -7 13 -15 11 -17z m154 -104 c15 -28 5 -23 -15 7 -9
15 -12 23 -6 20 6 -4 16 -16 21 -27z m-154 -17 c-3 -3 0 -12 7 -20 9 -13 9
-14 0 -8 -7 4 -18 16 -23 26 -9 16 -8 18 5 14 9 -4 13 -9 11 -12z m1258 -71
c-16 -28 -34 -33 -34 -10 0 6 4 8 9 4 6 -3 15 4 21 15 6 11 13 20 16 20 3 0
-3 -13 -12 -29z m-1299 -92 c-4 -5 -1 -9 5 -9 6 0 8 -5 4 -12 -5 -8 -2 -9 9
-5 10 4 17 2 17 -4 0 -7 -11 -9 -25 -7 -13 3 -22 2 -20 -3 3 -4 1 -10 -3 -13
-5 -3 -16 10 -25 29 -16 33 -16 34 6 37 27 5 39 0 32 -13z m43 -81 c-3 -7 -11
-13 -18 -13 -7 0 -15 6 -17 13 -3 7 4 12 17 12 13 0 20 -5 18 -12z m-164 -34
c9 -20 15 -38 13 -41 -3 -2 -11 9 -18 26 -7 16 -17 27 -21 25 -4 -3 -8 2 -8
10 0 27 16 18 34 -20z m1836 5 c0 -5 5 -7 10 -4 6 3 10 1 10 -4 0 -6 6 -11 14
-11 17 0 30 -16 19 -23 -5 -2 -26 9 -47 24 -24 18 -33 29 -22 29 9 0 16 -5 16
-11z m61 -6 c13 -16 12 -17 -3 -4 -17 13 -22 21 -14 21 2 0 10 -8 17 -17z
m-2058 -23 c-3 -12 -8 -19 -11 -16 -5 6 5 36 12 36 2 0 2 -9 -1 -20z m2002
-10 c3 -5 1 -10 -4 -10 -6 0 -11 5 -11 10 0 6 2 10 4 10 3 0 8 -4 11 -10z
m-1925 -35 c-13 -16 -4 -39 11 -29 5 3 7 9 4 14 -3 4 5 6 17 2 15 -4 18 -7 8
-10 -8 -2 -25 -16 -37 -30 -21 -25 -22 -25 -16 -4 3 12 1 22 -5 22 -7 0 -7 10
1 29 6 17 15 27 19 24 5 -2 4 -11 -2 -18z m74 9 c3 -7 -2 -10 -15 -7 -22 6
-26 20 -4 20 8 0 16 -6 19 -13z m1873 -3 c-1 -22 -33 -35 -44 -19 -4 7 -1 8 7
3 10 -6 12 -4 7 9 -5 14 -3 17 8 12 8 -3 15 -1 15 4 0 6 2 10 4 10 3 0 4 -9 3
-19z m38 -21 c18 -20 18 -21 1 -14 -17 7 -18 6 -2 -18 13 -20 14 -31 5 -56 -6
-18 -15 -29 -21 -26 -6 4 -6 9 -1 13 4 3 8 20 8 37 0 24 -4 30 -16 27 -9 -3
-20 0 -23 6 -4 6 0 11 8 11 9 0 15 3 15 8 -2 12 1 32 4 32 2 0 12 -9 22 -20z
m-1892 -24 c4 -10 0 -12 -14 -9 -10 3 -16 9 -13 14 8 13 21 11 27 -5z m-154
-32 c-6 -8 -8 -14 -3 -14 12 0 -19 -20 -31 -20 -5 0 -3 5 5 10 12 8 12 10 -5
10 -18 0 -18 2 5 19 27 21 48 18 29 -5z"/>
<path d="M2379 3788 c0 -2 -2 -16 -4 -31 -3 -25 -1 -27 18 -22 22 6 22 6 2
-10 -19 -16 -19 -16 10 -9 35 8 42 17 40 47 -1 17 -9 23 -33 25 -18 2 -32 2
-33 0z"/>
<path d="M4040 3695 c-7 -14 -11 -27 -8 -30 10 -10 51 31 44 43 -11 18 -21 14
-36 -13z"/>
<path d="M4094 3666 c-3 -9 -10 -13 -15 -10 -14 9 -10 -12 5 -25 11 -9 15 -6
20 15 8 30 0 46 -10 20z"/>
<path d="M4126 3672 c-2 -4 -1 -14 5 -22 7 -12 9 -10 9 8 0 23 -5 28 -14 14z"/>
<path d="M4025 3640 c-3 -5 -2 -10 4 -10 5 0 13 5 16 10 3 6 2 10 -4 10 -5 0
-13 -4 -16 -10z"/>
<path d="M4050 3583 c0 -10 4 -14 8 -8 4 6 11 13 16 18 5 4 2 7 -7 7 -10 0
-17 -8 -17 -17z"/>
<path d="M2222 3558 c-15 -15 -16 -28 -2 -28 6 0 10 6 10 14 0 8 6 17 13 19 6
3 7 6 2 6 -6 1 -16 -4 -23 -11z"/>
<path d="M2263 3533 c9 -2 23 -2 30 0 6 3 -1 5 -18 5 -16 0 -22 -2 -12 -5z"/>
<path d="M3976 3519 c-14 -11 -24 -24 -21 -29 3 -5 -1 -10 -7 -13 -7 -2 -10
-7 -7 -11 6 -6 79 59 79 70 0 10 -19 2 -44 -17z"/>
<path d="M3785 3394 c-39 -20 -41 -23 -17 -21 11 0 18 5 16 9 -3 4 2 8 10 8 8
0 18 5 21 10 8 13 5 13 -30 -6z"/>
<path d="M4235 3387 c-4 -10 -5 -21 -1 -24 10 -10 18 4 13 24 -4 17 -4 17 -12
0z"/>
<path d="M4211 3314 c1 -23 15 -43 25 -36 8 5 5 13 -7 26 -11 11 -19 15 -18
10z"/>
<path d="M2206 2898 c-8 -13 -17 -34 -20 -48 -6 -23 -6 -23 5 -5 6 11 25 32
43 47 29 26 30 27 9 28 -13 0 -29 -10 -37 -22z"/>
<path d="M2222 2858 c2 -6 10 -14 16 -16 7 -2 10 2 6 12 -7 18 -28 22 -22 4z"/>
<path d="M3676 2492 c-3 -2 -26 -6 -53 -8 -26 -3 -61 -9 -77 -14 -16 -6 -44
-10 -62 -10 -18 0 -39 -7 -48 -15 -8 -8 -19 -15 -24 -15 -18 0 -60 -46 -66
-73 -4 -15 -10 -26 -14 -23 -4 2 -8 -20 -10 -50 -3 -64 17 -116 77 -198 23
-30 41 -59 41 -64 0 -5 7 -16 17 -23 15 -13 16 -11 9 14 -4 16 -2 27 4 27 6 0
1 18 -10 40 -30 58 -26 84 13 104 32 15 32 16 5 16 -41 0 -39 22 6 52 51 34
54 34 58 1 2 -19 16 -36 43 -54 l40 -28 28 27 c15 15 30 37 33 49 7 26 12 27
51 12 26 -10 27 -12 11 -23 -10 -7 -15 -15 -12 -18 6 -7 -59 -38 -79 -38 -9 0
-19 -5 -22 -10 -4 -7 -11 -7 -18 -2 -18 14 -46 11 -40 -5 8 -19 106 -21 129
-2 6 5 14 6 17 3 3 -4 13 1 22 10 9 9 13 16 8 16 -4 0 3 8 17 17 14 10 40 16
65 15 l40 -1 -67 32 c-38 18 -68 35 -68 40 0 15 43 6 86 -19 52 -31 69 -26 24
6 -44 31 -113 50 -184 50 -34 0 -67 4 -74 8 -18 12 91 45 163 49 33 1 69 5 80
7 11 3 23 5 26 5 3 1 5 12 4 26 -2 14 2 25 8 25 7 0 -3 10 -22 22 -24 16 -51
22 -102 23 -38 1 -71 0 -73 -3z m-76 -212 c0 -5 -5 -10 -11 -10 -5 0 -7 5 -4
10 3 6 8 10 11 10 2 0 4 -4 4 -10z"/>
<path d="M4231 2451 c-12 -16 -18 -36 -15 -45 3 -9 2 -16 -4 -16 -11 0 -10
-25 1 -36 4 -4 7 2 7 14 0 11 5 22 10 24 6 2 12 12 15 23 2 11 7 30 11 43 9
30 -1 28 -25 -7z"/>
<path d="M2589 2447 c-20 -19 -51 -31 -89 -36 -13 -1 -13 -2 0 -11 12 -8 12
-10 -3 -16 -14 -5 -15 -9 -6 -21 7 -7 18 -12 26 -9 8 4 11 1 7 -5 -4 -8 1 -9
17 -4 13 4 57 7 99 7 161 -2 243 -32 123 -46 -32 -3 -86 -16 -120 -27 -61 -20
-119 -56 -109 -67 3 -3 1 -11 -5 -18 -9 -11 -2 -13 33 -13 23 1 56 -4 71 -10
16 -6 42 -11 58 -11 18 0 28 -4 24 -10 -3 -5 -3 -10 2 -11 67 -6 100 -11 111
-14 9 -3 12 2 10 13 -3 14 -13 17 -55 16 -28 0 -50 4 -47 8 3 4 -7 8 -21 8
-54 0 -64 54 -16 80 18 9 21 8 21 -10 0 -31 44 -70 78 -70 31 0 65 30 77 68
l7 23 36 -23 c20 -12 40 -26 43 -30 3 -5 13 -6 21 -3 9 4 19 2 23 -4 4 -7 -8
-10 -35 -9 -22 1 -46 -4 -52 -10 -7 -7 -20 -12 -29 -12 -21 0 -44 -26 -30 -34
14 -9 63 12 56 24 -3 5 2 9 12 8 10 0 39 0 65 0 47 2 47 2 37 28 -12 32 -2 46
15 22 11 -15 13 -15 24 3 10 16 10 26 -4 54 -11 25 -13 39 -6 48 16 19 3 67
-19 67 -11 0 -19 4 -19 9 0 13 -134 41 -196 41 -29 0 -55 4 -59 9 -6 10 -32 9
-78 -4 -17 -5 -33 -3 -42 5 -12 10 -15 10 -15 0 0 -10 -3 -10 -14 -1 -11 9
-17 9 -27 -2z m41 -201 c0 -2 -7 -7 -16 -10 -8 -3 -12 -2 -9 4 6 10 25 14 25
6z"/>
<path d="M4291 2377 c-10 -13 -3 -60 15 -89 11 -18 21 26 16 69 -4 35 -13 41
-31 20z"/>
<path d="M2050 2295 c1 -26 2 -28 11 -12 8 14 8 22 0 30 -8 8 -11 3 -11 -18z"/>
<path d="M4187 2152 c-3 -15 0 -58 6 -97 11 -62 14 -70 32 -67 30 6 35 21 33
91 -3 61 -5 65 -34 82 l-32 17 -5 -26z"/>
<path d="M3460 1775 c0 -47 -16 -72 -66 -102 -17 -10 -15 -12 19 -12 51 -1 74
13 82 48 7 31 -12 111 -27 111 -4 0 -8 -20 -8 -45z"/>
<path d="M3302 1734 c-13 -9 -21 -22 -18 -30 9 -23 -49 -56 -87 -50 l-32 6 33
-15 c17 -8 32 -20 32 -26 0 -8 4 -8 13 -1 6 5 27 9 45 7 32 -3 33 -2 26 27 -6
30 -5 30 25 26 47 -7 61 23 25 51 -32 25 -33 25 -62 5z"/>
<path d="M3056 1715 c-14 -15 -23 -31 -20 -36 3 -5 0 -9 -7 -9 -18 0 7 -27 31
-33 25 -6 26 2 3 19 -16 11 -14 14 20 29 21 9 47 13 58 10 10 -4 19 -2 19 3 0
14 -22 30 -52 37 -22 6 -32 1 -52 -20z"/>
<path d="M3126 1603 c-9 -9 -7 -33 3 -33 12 0 22 28 12 34 -5 3 -11 3 -15 -1z"/>
<path d="M3267 1595 c3 -8 11 -15 18 -15 7 0 15 -6 18 -12 3 -9 8 -10 15 -3 7
7 0 15 -23 27 -28 14 -33 14 -28 3z"/>
<path d="M3069 1585 c-1 -3 -2 -8 -3 -12 -7 -26 -30 -62 -37 -57 -12 7 -11 0
3 -31 13 -28 19 -30 36 -13 9 9 12 9 12 -2 1 -10 8 -6 21 10 21 25 25 26 44
10 6 -5 10 5 11 27 1 34 0 35 -16 17 -23 -28 -40 -28 -40 1 0 14 -7 28 -15 31
-8 4 -12 10 -9 15 3 5 3 9 0 9 -3 0 -7 -2 -7 -5z"/>
<path d="M3182 1568 c-20 -20 -15 -86 7 -97 10 -6 21 -7 25 -4 3 3 6 1 6 -5 0
-6 7 -9 15 -6 12 5 13 10 4 20 -6 8 -8 22 -4 31 6 16 8 15 21 -7 l15 -25 -7
25 c-7 27 -27 50 -43 50 -6 0 -10 5 -8 11 3 17 -17 21 -31 7z"/>
<path d="M3270 1553 c0 -28 12 -63 20 -63 5 0 6 8 3 19 -3 10 0 22 6 25 6 4
11 0 11 -8 0 -9 5 -16 10 -16 6 0 10 -7 10 -15 0 -9 6 -15 13 -13 6 1 32 -8
56 -21 39 -20 45 -21 59 -7 14 14 17 13 29 -2 10 -12 12 -12 8 -2 -4 8 3 4 14
-10 36 -44 20 -74 -33 -59 -19 5 -45 5 -64 0 -34 -10 -46 3 -12 14 18 6 18 8
5 21 -26 26 -70 34 -102 17 -15 -8 -50 -17 -78 -20 -27 -3 -62 -14 -76 -24
-24 -17 -28 -17 -39 -3 -10 11 -22 13 -44 8 -40 -9 -63 -13 -108 -20 -32 -5
-38 -3 -38 12 0 14 -3 15 -12 6 -18 -18 -51 -15 -44 4 3 9 6 18 6 20 0 3 5 2
12 -2 8 -5 9 -2 5 10 -4 10 -7 20 -7 22 0 2 -8 -4 -18 -13 -10 -10 -16 -24
-14 -32 4 -10 0 -13 -11 -8 -9 3 -19 1 -23 -5 -4 -7 -3 -8 4 -4 7 4 12 2 12
-3 0 -6 -7 -11 -15 -11 -8 0 -15 -7 -15 -15 0 -8 -9 -23 -20 -32 -11 -10 -20
-28 -20 -40 0 -13 -9 -32 -20 -43 -25 -25 -25 -30 -2 -31 14 0 13 -2 -4 -9
-12 -5 -26 -22 -32 -39 -6 -17 -16 -31 -22 -31 -6 0 -8 -5 -5 -10 4 -6 1 -18
-7 -27 -7 -9 -8 -14 -2 -10 6 3 11 0 11 -8 0 -8 -5 -11 -10 -8 -6 4 -8 -2 -5
-14 3 -13 0 -20 -9 -20 -8 0 -12 6 -9 14 3 8 1 11 -4 8 -6 -3 -10 -14 -11 -23
0 -11 -2 -12 -6 -4 -2 6 -9 10 -14 6 -14 -8 -11 -34 5 -34 7 0 16 -9 19 -19 6
-23 66 -63 81 -54 6 4 3 -3 -7 -15 -18 -20 -18 -21 2 -34 12 -7 21 -17 21 -23
0 -14 51 -55 69 -55 12 0 13 -2 3 -8 -8 -6 -1 -15 25 -29 21 -11 37 -24 36
-30 -1 -5 7 -14 17 -20 15 -10 17 -9 13 10 -4 20 -3 20 10 -3 9 -14 13 -28 10
-32 -2 -5 3 -16 12 -25 13 -12 14 -18 4 -24 -11 -6 -10 -12 3 -26 12 -14 31
-123 21 -123 -1 0 -19 11 -39 25 -41 28 -54 31 -54 13 0 -7 18 -23 40 -36 22
-12 40 -28 40 -34 0 -7 -5 -6 -15 2 -9 7 -19 10 -23 6 -4 -4 2 -14 13 -22 11
-8 31 -24 44 -36 19 -18 23 -19 18 -6 -8 23 7 32 23 13 7 -8 19 -15 26 -15 8
0 14 -5 14 -11 0 -6 -7 -9 -15 -6 -8 4 -17 2 -19 -2 -7 -11 42 -34 79 -37 16
-1 31 -7 33 -13 2 -6 8 -11 13 -11 6 0 7 6 3 13 -4 6 4 2 18 -10 13 -13 28
-23 32 -23 4 0 15 -7 23 -16 12 -11 31 -15 69 -12 34 2 50 0 44 -7 -15 -14
-12 -28 6 -21 9 3 25 -4 38 -17 13 -13 28 -21 34 -19 8 2 10 -3 5 -14 -5 -13
-3 -16 8 -12 119 49 213 79 217 69 2 -5 12 -7 22 -4 22 6 26 -7 8 -25 -9 -9
-8 -12 4 -12 22 0 43 27 26 32 -11 4 -10 10 1 31 7 14 11 35 8 46 -3 12 -1 19
4 15 5 -3 9 2 9 10 0 9 -5 16 -12 16 -6 0 -4 8 6 19 10 11 15 25 10 32 -4 7
-3 10 2 6 6 -3 16 -1 24 4 11 8 12 12 3 15 -13 6 13 63 36 78 10 6 11 10 1 16
-9 6 -9 13 1 31 11 21 11 23 -3 11 -13 -10 -18 -10 -24 -1 -4 8 -3 9 4 5 7 -4
12 -1 12 9 0 9 -4 14 -9 11 -15 -10 -9 47 9 76 9 15 19 26 21 24 2 -3 9 6 16
20 14 29 7 30 -32 4 -34 -22 -45 -25 -45 -9 0 5 5 7 10 4 9 -6 14 8 11 28 -1
5 2 6 6 4 5 -3 14 1 21 9 11 12 9 14 -13 14 -14 0 -25 -4 -25 -9 0 -5 -10 -11
-22 -13 -12 -2 -28 -13 -34 -26 -6 -13 -15 -23 -19 -22 -8 2 -45 -50 -45 -63
0 -5 5 -5 10 -2 26 16 5 -16 -40 -60 -47 -48 -62 -75 -40 -75 6 0 10 -4 10
-10 0 -5 -7 -7 -15 -4 -9 4 -16 -3 -21 -20 -3 -14 -10 -24 -14 -21 -5 3 -11
-1 -14 -7 -3 -7 -4 0 0 16 3 17 13 36 22 43 26 20 7 15 -32 -7 -22 -14 -37
-17 -41 -10 -3 5 0 10 7 10 7 0 14 11 14 24 1 19 -2 23 -15 19 -13 -5 -12 -2
4 16 17 20 17 22 3 20 -9 -2 -17 -1 -17 4 -3 26 0 29 17 16 14 -11 14 -10 -2
8 -15 19 -16 25 -6 38 7 8 9 15 4 15 -5 0 -9 11 -9 24 0 13 2 23 4 21 2 -3 23
12 47 32 24 19 44 30 44 23 0 -10 3 -10 15 0 8 7 15 19 15 26 0 8 7 14 15 14
7 0 18 6 22 14 4 8 15 16 23 18 8 2 23 16 33 31 11 18 23 27 32 23 8 -3 15 -2
15 2 0 15 53 72 61 66 5 -3 9 2 9 10 0 9 9 25 21 37 12 12 18 27 15 36 -5 13
-4 14 9 3 9 -7 18 -10 22 -6 3 3 2 6 -4 6 -6 0 -8 11 -5 25 4 24 2 25 -28 20
-17 -3 -29 -2 -26 3 7 11 -4 24 -34 41 l-25 14 23 -25 c28 -31 29 -48 6 -111
-11 -32 -20 -44 -25 -36 -4 7 -5 17 -2 23 13 20 10 72 -4 88 -8 9 -16 38 -18
63 -5 70 -16 67 -15 -4 0 -14 -3 -22 -6 -18 -3 3 -7 37 -8 76 0 38 -5 73 -10
78 -5 5 -7 1 -3 -9 4 -11 1 -15 -11 -13 -9 1 -23 -2 -29 -8 -9 -6 -13 -6 -13
2 0 6 4 11 8 11 5 0 15 11 22 25 10 19 16 22 27 14 10 -9 13 -8 13 5 0 9 -4
16 -10 16 -5 0 -10 11 -10 24 0 22 -14 40 -32 41 -3 0 -10 4 -15 9 -5 5 -3 6
5 2 14 -8 14 0 2 29 -5 11 -9 14 -9 8 -1 -7 -6 -13 -12 -13 -6 0 -9 6 -6 13 2
6 -2 24 -10 40 -15 30 -26 37 -16 10 5 -14 0 -12 -20 6 -15 14 -30 21 -34 18
-3 -4 -1 -7 6 -7 7 0 9 -5 5 -12 -4 -6 -3 -8 2 -5 5 3 10 -3 10 -14 0 -10 -1
-19 -2 -19 -1 0 -12 16 -25 36 -14 23 -24 32 -29 24 -5 -8 -9 -7 -13 5 -4 9
-3 13 3 10 6 -3 10 -2 10 2 0 5 -17 16 -37 26 -33 14 -38 15 -46 2 -6 -11 -13
-13 -26 -6 -12 7 -22 6 -29 -1 -9 -9 -12 -9 -12 0 0 7 -9 12 -20 12 -11 0 -20
5 -20 10 0 6 -4 10 -10 10 -5 0 -10 -8 -10 -17z m-351 -248 c55 -19 54 -19 62
2 7 15 8 16 8 1 1 -15 4 -15 31 -2 16 9 38 13 47 10 23 -7 93 -19 116 -20 9 0
17 -6 17 -14 0 -21 -34 -59 -48 -54 -6 2 -12 0 -12 -5 0 -6 -23 -9 -50 -9 -28
1 -49 -3 -47 -8 2 -5 -10 -21 -25 -37 -25 -25 -27 -30 -16 -54 6 -14 14 -22
17 -18 5 7 15 8 45 4 5 0 4 -7 -1 -13 -14 -19 -10 -51 7 -55 12 -4 12 -3 1 5
-10 7 -11 14 -2 31 13 23 26 27 36 11 5 -8 11 -7 20 0 10 8 19 8 34 1 13 -7
22 -8 26 -1 9 14 21 12 39 -6 9 -8 25 -14 35 -12 11 2 27 -6 35 -17 15 -19 15
-18 10 13 -6 27 -4 31 10 26 9 -3 16 -12 16 -20 0 -7 8 -18 18 -23 9 -6 13
-11 9 -11 -4 0 4 -16 19 -35 22 -29 23 -34 8 -29 -11 4 -27 14 -38 23 -18 15
-18 15 -3 -21 8 -20 13 -39 10 -41 -8 -9 -33 4 -33 17 0 6 -9 12 -20 13 -12 1
-20 -4 -20 -13 0 -9 5 -13 13 -9 6 4 4 0 -5 -8 -10 -8 -18 -19 -18 -26 0 -6
-4 -11 -9 -11 -5 0 -12 -8 -14 -17 -3 -10 -5 4 -6 30 -1 33 -5 46 -12 41 -7
-4 -20 4 -31 17 -10 13 -16 17 -12 8 3 -10 1 -20 -5 -24 -6 -3 -11 0 -11 8 0
8 -8 21 -17 28 -15 13 -16 12 -11 -9 4 -14 2 -20 -5 -15 -6 4 -8 -2 -5 -15 4
-12 3 -20 -2 -17 -4 3 -11 -2 -14 -11 -3 -8 -11 -12 -17 -9 -7 5 -8 -5 -4 -32
6 -36 6 -37 -7 -13 -8 14 -21 24 -29 22 -9 -1 -22 9 -29 23 -7 13 -17 22 -21
19 -14 -8 -21 16 -14 47 6 26 9 28 23 17 12 -10 14 -10 8 0 -4 7 -1 15 8 18 9
3 16 10 16 15 0 5 -12 3 -27 -4 -16 -8 -38 -18 -50 -21 -22 -7 -22 -6 -8 21
15 27 14 28 -10 38 -14 5 -24 14 -21 21 2 6 -5 19 -15 28 -11 9 -17 21 -14 26
3 6 -3 10 -15 10 -13 0 -19 4 -14 12 5 7 0 9 -14 6 -16 -5 -20 -2 -17 14 3 12
2 18 -2 14 -3 -3 -13 0 -21 7 -8 6 -23 13 -34 13 -10 1 -20 2 -22 3 -3 0 8 13
23 29 15 15 30 32 32 37 3 7 42 39 55 44 1 1 20 -6 43 -14z m541 3 c0 -9 4 -8
10 2 8 13 10 12 10 -4 0 -10 7 -24 15 -30 14 -10 12 -15 -13 -39 -36 -35 -92
-50 -110 -30 -7 7 -8 13 -3 13 5 0 12 14 16 30 4 17 11 28 16 24 5 -3 9 1 9 8
0 18 20 38 37 38 7 0 13 -6 13 -12z m-670 -8 c0 -5 -2 -10 -4 -10 -3 0 -8 5
-11 10 -3 6 -1 10 4 10 6 0 11 -4 11 -10z m449 -40 c0 -15 -3 -19 -6 -10 -3 8
-10 18 -15 21 -5 3 -6 13 -2 23 9 23 24 1 23 -34z m89 45 c20 -7 -4 -45 -28
-45 -11 0 -20 -5 -20 -11 0 -6 -7 -4 -15 5 -14 14 -20 38 -11 47 6 6 59 9 74
4z m277 -5 c4 -6 10 -8 15 -5 5 3 12 0 15 -6 4 -6 -2 -13 -14 -16 -12 -3 -21
-10 -22 -17 0 -6 -3 -20 -5 -31 -2 -11 -5 -28 -6 -37 -3 -20 -18 -25 -18 -5 0
8 -3 7 -9 -3 -6 -8 -7 -19 -5 -25 3 -5 -2 -1 -10 10 -17 21 -16 42 3 38 6 -2
11 6 11 16 0 11 7 27 16 35 8 9 11 16 6 16 -6 0 -8 9 -5 20 6 22 18 26 28 10z
m-795 -125 c-7 -9 -15 -13 -17 -11 -7 7 7 26 19 26 6 0 6 -6 -2 -15z m712 -39
c7 4 8 2 4 -5 -9 -13 -26 -5 -25 12 0 9 2 8 6 -1 2 -6 10 -9 15 -6z m-108 -64
c-21 -5 -26 2 -18 22 6 15 7 15 20 -1 11 -15 10 -19 -2 -21z m-41 11 c-3 -7
-9 -10 -14 -7 -14 8 -11 21 5 21 8 0 12 -6 9 -14z m346 -73 c0 -10 -3 -8 -9 5
-12 27 -12 43 0 25 5 -8 9 -22 9 -30z m79 14 c1 -14 -2 -23 -7 -20 -7 5 -8 23
-2 44 3 9 7 -2 9 -24z m-578 -105 c0 -5 -4 -7 -10 -4 -5 3 -10 1 -10 -6 0 -7
-3 -10 -6 -6 -8 7 4 27 17 27 5 0 9 -5 9 -11z m-216 -24 c-4 -8 -8 -15 -10
-15 -2 0 -4 7 -4 15 0 8 4 15 10 15 5 0 7 -7 4 -15z m-34 -455 c0 -5 -2 -10
-4 -10 -3 0 -8 5 -11 10 -3 6 -1 10 4 10 6 0 11 -4 11 -10z"/>
<path d="M3010 1282 c0 -12 4 -22 9 -22 10 0 9 26 -2 36 -4 4 -7 -2 -7 -14z"/>
<path d="M3085 1230 c-3 -5 -1 -10 4 -10 6 0 11 5 11 10 0 6 -2 10 -4 10 -3 0
-8 -4 -11 -10z"/>
<path d="M3260 1030 c0 -5 5 -10 11 -10 5 0 7 5 4 10 -3 6 -8 10 -11 10 -2 0
-4 -4 -4 -10z"/>
<path d="M3090 1005 c-7 -9 -10 -18 -7 -21 3 -3 10 4 17 15 13 25 8 27 -10 6z"/>
<path d="M3251 1003 c7 -10 15 -20 16 -22 2 -2 3 3 3 11 0 9 -7 19 -16 22 -15
6 -15 4 -3 -11z"/>
<path d="M3060 921 c0 -5 5 -13 10 -16 6 -3 10 -2 10 4 0 5 -4 13 -10 16 -5 3
-10 2 -10 -4z"/>
<path d="M2983 1499 c1 -6 -4 -14 -12 -17 -8 -3 -11 0 -7 7 5 7 1 9 -9 5 -9
-4 -13 -9 -11 -12 3 -3 1 -11 -5 -19 -7 -8 -8 -13 -1 -13 5 0 8 -10 4 -22 -3
-14 -2 -19 6 -14 7 4 12 15 12 25 0 26 22 42 40 31 25 -16 34 -11 17 8 -10 10
-14 22 -10 25 3 4 -1 7 -10 7 -9 0 -16 -5 -14 -11z"/>
<path d="M2820 1450 c0 -16 -5 -30 -11 -30 -6 0 -8 7 -5 16 4 10 2 14 -6 11
-7 -2 -12 -10 -10 -16 1 -7 -3 -21 -9 -33 -11 -20 -11 -20 20 -2 17 10 31 24
31 31 0 7 4 13 8 13 4 0 8 9 9 20 1 11 -4 20 -13 20 -9 0 -14 -11 -14 -30z"/>
<path d="M3902 1119 c-10 -27 -14 -31 -22 -19 -5 8 -10 11 -10 5 0 -5 4 -16 8
-23 12 -18 45 20 40 48 -3 19 -5 18 -16 -11z"/>
<path d="M3930 1139 c0 -5 5 -7 10 -4 6 3 10 8 10 11 0 2 -4 4 -10 4 -5 0 -10
-5 -10 -11z"/>
<path d="M3850 1094 c0 -14 4 -23 9 -20 5 3 7 15 4 26 -7 28 -13 25 -13 -6z"/>
<path d="M3802 1098 c2 -5 8 -9 13 -9 5 0 11 4 13 9 1 5 -4 9 -13 9 -9 0 -14
-4 -13 -9z"/>
<path d="M3725 1091 c-3 -5 -1 -12 5 -16 5 -3 10 1 10 9 0 18 -6 21 -15 7z"/>
<path d="M3740 1029 c0 -5 5 -7 10 -4 6 3 10 8 10 11 0 2 -4 4 -10 4 -5 0 -10
-5 -10 -11z"/>
<path d="M3645 180 c4 -12 -3 -21 -24 -30 -16 -6 -32 -18 -35 -26 -3 -8 -16
-14 -28 -15 -13 0 -17 -3 -10 -6 15 -6 95 32 113 53 10 12 14 12 20 2 6 -9 9
-7 9 8 0 15 -8 23 -25 26 -21 4 -24 2 -20 -12z"/>
<path d="M3360 180 c0 -6 -4 -8 -10 -5 -5 3 -10 1 -10 -5 0 -7 7 -10 15 -6 13
4 13 2 5 -14 -16 -29 -12 -33 11 -11 20 18 20 21 5 36 -9 9 -16 11 -16 5z"/>
<path d="M3710 146 c0 -17 -27 -30 -56 -27 -11 1 -27 -5 -34 -13 -7 -9 -21
-16 -31 -16 -22 0 -34 -16 -19 -25 8 -5 6 -13 -6 -26 -9 -10 -13 -19 -8 -19 5
0 2 -5 -6 -10 -10 -6 37 -10 143 -10 86 0 157 1 157 3 0 13 -90 98 -99 93 -6
-4 -11 -1 -11 8 0 22 -17 20 -24 -1 -2 -10 -2 -1 1 20 3 20 2 37 -1 37 -3 0
-6 -6 -6 -14z"/>
<path d="M3825 50 c-3 -5 -1 -10 4 -10 6 0 11 5 11 10 0 6 -2 10 -4 10 -3 0
-8 -4 -11 -10z"/>
</g>
</svg>
