<?xml version="1.0" standalone="no"?>
<!DOCTYPE svg PUBLIC "-//W3C//DTD SVG 20010904//EN"
 "http://www.w3.org/TR/2001/REC-SVG-20010904/DTD/svg10.dtd">
<svg version="1.0" xmlns="http://www.w3.org/2000/svg"
 width="720.000000pt" height="405.000000pt" viewBox="0 0 720.000000 405.000000"
 preserveAspectRatio="xMidYMid meet">
<metadata>
Created by potrace 1.16, written by Peter Selinger 2001-2019
</metadata>
<g transform="translate(0.000000,405.000000) scale(0.100000,-0.100000)"
fill="#000000" stroke="none">
<path d="M2190 4035 c-7 -8 -21 -15 -31 -15 -11 0 -19 -7 -19 -15 0 -21 -6
-19 -46 11 -34 26 -35 26 -49 8 -9 -13 -10 -23 -3 -31 6 -7 7 -13 2 -13 -4 0
3 -11 16 -25 l23 -25 -24 0 c-14 0 -35 8 -49 17 -23 16 -23 16 -16 -3 13 -32
12 -48 -4 -49 -84 -4 -157 -31 -234 -85 -85 -60 -114 -90 -127 -128 -6 -20
-18 -46 -25 -57 -22 -31 -18 -56 9 -51 12 3 25 5 28 5 4 1 9 20 13 43 5 32 9
39 16 28 6 -10 10 -11 10 -3 0 7 11 15 25 19 13 3 29 12 36 20 7 8 21 11 35 8
15 -4 24 -2 24 6 0 7 -7 10 -15 6 -9 -3 -15 0 -15 9 0 20 36 19 44 0 7 -18 43
-20 49 -2 2 6 8 8 13 4 5 -4 2 -12 -6 -17 -13 -8 -12 -12 5 -24 20 -15 20 -15
0 -16 -27 0 -93 -24 -107 -38 -7 -7 -19 -12 -28 -12 -24 0 -92 -37 -125 -69
-33 -31 -77 -113 -95 -176 -14 -48 -10 -280 5 -280 6 0 11 10 13 23 5 33 22
27 22 -9 0 -22 -6 -32 -19 -36 -12 -3 -17 -11 -14 -23 3 -10 -5 -46 -17 -80
-17 -48 -20 -67 -12 -84 28 -58 25 -116 -7 -116 -11 0 -26 -17 -39 -44 -13
-24 -29 -47 -37 -50 -20 -7 -19 -46 0 -60 19 -14 7 -87 -15 -94 -13 -5 -13 -3
-1 11 12 15 11 17 -11 17 -24 0 -25 -3 -21 -39 4 -33 1 -41 -17 -51 -12 -6
-19 -14 -16 -18 4 -3 -2 -15 -13 -26 -11 -12 -22 -41 -24 -66 -3 -25 -8 -53
-12 -62 -4 -11 -3 -18 4 -18 16 0 0 -32 -25 -53 -21 -16 -22 -20 -9 -51 12
-28 12 -45 3 -90 -10 -54 -12 -56 -29 -40 -18 16 -19 16 -19 1 0 -10 5 -17 10
-17 6 0 10 -7 10 -16 0 -11 -6 -14 -20 -9 -24 8 -26 -4 -5 -31 8 -10 15 -27
15 -36 0 -10 4 -18 8 -18 4 0 13 -20 20 -45 8 -30 17 -45 28 -45 11 0 15 -6
11 -20 -3 -11 -1 -20 5 -20 6 0 8 -6 5 -13 -3 -7 6 -23 19 -36 13 -13 24 -29
24 -36 0 -7 14 -18 30 -24 37 -12 40 -26 3 -16 -27 6 -55 34 -47 46 2 4 -5 14
-16 24 -17 16 -20 16 -26 2 -3 -9 -12 -13 -19 -11 -7 3 -16 0 -20 -6 -8 -13
97 -136 139 -161 24 -15 27 -19 13 -24 -9 -4 -21 -4 -27 0 -5 3 -10 1 -10 -4
0 -6 15 -11 34 -11 19 0 36 -4 38 -10 3 -9 12 -10 77 -9 24 0 38 -7 29 -16 -2
-3 -26 -8 -52 -11 -36 -5 -50 -3 -58 7 -7 11 -8 9 -6 -6 3 -17 10 -20 52 -17
40 3 48 0 53 -17 3 -11 11 -22 19 -25 25 -9 15 -34 -31 -80 -44 -45 -45 -46
-51 -21 -3 14 -4 31 -1 38 3 8 -3 13 -14 13 -16 0 -18 -5 -13 -36 4 -19 11
-43 15 -52 5 -9 9 -30 9 -47 0 -39 9 -61 26 -61 8 0 11 6 8 15 -4 8 -1 15 6
15 6 0 14 -9 17 -20 3 -11 11 -20 18 -20 8 0 20 -3 29 -6 28 -11 17 11 -14 30
-35 20 -65 61 -55 75 4 7 23 4 54 -8 29 -12 63 -18 87 -15 21 2 77 7 123 11
83 6 84 6 79 -15 -4 -13 -2 -20 3 -16 15 9 39 -16 32 -33 -5 -13 -1 -15 19
-10 31 8 53 -13 45 -44 -3 -12 0 -38 8 -58 22 -57 58 -258 49 -273 -3 -4 -24
-6 -47 -3 -41 5 -41 5 12 -12 l53 -18 -5 -55 c-4 -39 -3 -48 3 -33 12 30 26
29 34 -2 4 -14 11 -22 19 -19 26 10 53 -32 66 -105 9 -47 17 -71 27 -71 16 0
34 -31 34 -60 0 -49 78 -118 111 -97 15 10 86 -16 100 -36 4 -5 9 -5 13 1 4 6
14 8 22 5 12 -5 13 -7 3 -14 -25 -15 1 -23 76 -23 l75 -1 0 -42 c0 -49 -5 -52
-37 -21 -13 12 -23 17 -23 12 0 -16 39 -74 50 -74 5 0 10 -24 10 -55 l0 -55
39 0 c30 0 40 4 44 19 3 14 11 18 26 14 16 -4 21 -1 21 16 0 22 -28 29 -46 11
-6 -6 -10 -4 -11 8 -1 9 -4 27 -8 40 -6 19 -4 22 21 23 25 0 26 2 9 8 -16 6
-20 18 -21 60 -1 41 2 51 15 49 10 -2 17 6 19 20 l3 23 20 -25 c22 -28 24 -42
7 -49 -7 -3 -8 -6 -3 -6 28 -2 38 17 27 49 -10 28 -10 31 4 26 13 -5 15 -2 11
14 -7 28 11 25 35 -5 11 -14 28 -25 39 -25 10 0 19 -5 19 -11 0 -6 -7 -9 -15
-6 -8 4 -17 2 -20 -3 -4 -6 5 -10 19 -10 14 0 34 -8 44 -18 10 -10 26 -21 35
-25 9 -3 17 -13 17 -21 0 -7 7 -16 15 -20 8 -3 15 -1 15 4 0 6 5 10 10 10 6 0
10 -9 10 -20 0 -13 5 -17 14 -14 10 4 16 -2 18 -18 2 -16 11 -24 28 -26 17 -2
35 -18 55 -48 l30 -44 696 0 697 0 -6 105 c-5 106 2 128 27 82 13 -25 84 -52
106 -39 17 9 65 72 65 85 0 11 -43 -2 -53 -17 -4 -6 -4 3 -1 19 9 36 29 53 58
48 22 -4 65 31 53 43 -3 3 -14 -4 -24 -15 -20 -24 -43 -28 -43 -6 0 8 -7 15
-16 15 -9 0 -14 6 -11 13 5 13 11 13 41 1 15 -6 17 -4 11 14 -6 20 2 27 27 23
4 0 5 6 2 14 -4 9 3 18 19 24 14 5 28 15 32 21 3 5 10 8 15 5 4 -3 15 7 24 20
9 14 21 23 25 20 5 -3 17 15 28 40 11 27 23 43 31 40 6 -2 12 0 12 4 0 5 -4
11 -9 13 -6 2 -5 20 2 45 10 39 11 40 22 20 6 -12 17 -21 23 -20 7 2 12 -7 12
-18 0 -19 -2 -20 -16 -8 -15 12 -16 10 -10 -19 5 -21 4 -32 -3 -32 -6 0 -11
-7 -11 -15 0 -24 15 -18 31 12 21 41 41 63 59 64 9 0 6 4 -7 9 -27 11 -32 43
-5 33 9 -3 25 -12 34 -18 10 -7 47 -10 87 -9 39 2 73 -1 76 -6 6 -9 44 -2 63
13 6 5 12 16 12 25 0 8 8 21 18 28 16 13 16 13 0 14 -35 0 -10 33 45 57 15 7
30 21 33 30 14 44 29 63 56 68 29 7 58 29 58 46 0 6 -7 6 -19 0 -10 -6 -21 -8
-24 -5 -7 8 4 44 14 44 5 0 9 6 9 13 0 14 -62 41 -94 42 -10 0 -22 10 -27 23
-8 20 -5 22 24 22 54 1 82 33 54 62 -19 19 -10 141 9 134 7 -3 16 -1 19 3 3 5
14 7 25 4 23 -6 27 9 6 26 -11 9 -11 18 -2 46 7 19 15 38 19 41 11 12 8 24 -6
24 -8 0 -28 -7 -45 -16 -36 -18 -56 -11 -43 14 4 9 6 23 3 31 -2 8 3 18 12 23
9 5 16 15 16 22 0 7 11 23 25 36 l24 23 10 -27 c15 -39 41 -34 35 7 -4 29 -1
34 36 57 23 14 58 30 78 36 20 6 36 15 35 21 -1 6 9 21 22 33 14 13 25 20 25
16 0 -3 13 0 30 9 19 10 32 26 35 43 3 15 10 45 16 67 20 78 26 133 13 128 -9
-3 -11 12 -9 59 3 58 -12 132 -36 180 -5 10 -9 23 -9 29 0 6 -13 29 -28 52
-16 23 -32 50 -35 60 -4 11 -16 21 -27 24 -11 3 -20 9 -20 13 0 5 -10 12 -22
16 -29 9 -47 33 -48 62 0 12 -8 25 -17 29 -34 12 -44 25 -32 39 12 15 -17 63
-38 64 -7 0 -13 10 -13 23 1 21 1 22 15 3 15 -20 15 -20 15 0 0 14 10 23 33
29 43 13 43 40 0 39 -26 -2 -33 3 -38 23 -3 14 1 37 9 54 15 30 2 41 -21 18
-13 -13 -36 -3 -27 12 3 5 10 7 15 4 5 -4 9 -1 9 4 0 12 46 15 53 4 3 -5 8
-23 12 -42 5 -23 4 -31 -4 -27 -19 12 -12 -2 14 -28 14 -14 25 -32 25 -41 0
-8 5 -15 10 -15 6 0 10 9 10 19 0 11 5 23 10 26 7 4 8 24 5 50 -8 49 2 60 39
45 17 -6 27 -6 32 1 6 10 -29 51 -100 118 -50 46 -104 101 -137 137 -15 16
-35 36 -45 44 -18 14 -17 15 9 18 29 4 34 11 16 29 -7 7 -4 18 13 35 60 65 67
78 58 102 -8 23 -29 30 -129 41 -18 2 -38 8 -43 13 -6 6 -17 8 -24 5 -8 -3
-17 2 -20 11 -3 9 -16 16 -29 16 -12 0 -30 9 -40 20 -10 11 -13 20 -7 20 7 0
12 7 12 16 0 11 5 14 17 10 11 -5 23 0 33 14 25 34 120 39 190 10 76 -30 85
-36 82 -52 -2 -7 0 -10 3 -6 4 4 23 -4 41 -19 43 -32 84 -111 100 -192 6 -32
19 -27 21 10 2 22 -2 39 -8 39 -6 0 -7 4 -4 10 10 16 -52 121 -95 162 -22 20
-70 54 -107 74 -57 31 -77 37 -123 36 -66 -2 -116 -8 -129 -17 -6 -3 -27 1
-47 10 -48 20 -51 19 -28 -6 16 -17 16 -22 4 -29 -8 -6 -23 -10 -33 -10 -22 0
-39 40 -25 58 7 8 6 12 -3 12 -24 0 -42 17 -43 41 -1 22 -26 41 -26 20 0 -6
-4 -11 -9 -11 -5 0 -6 12 -2 27 7 25 4 29 -41 50 -52 24 -60 38 -27 46 15 4
20 11 15 23 -3 9 -2 22 4 29 8 9 5 14 -9 18 -16 4 -20 0 -18 -16 2 -25 -31
-36 -44 -15 -11 17 -11 31 0 24 5 -4 7 4 3 16 -4 18 -2 20 16 16 12 -4 22 -2
22 2 0 5 10 11 23 13 16 3 14 5 -10 6 -46 2 -58 29 -26 59 25 23 25 45 0 24
-16 -14 -28 -6 -20 14 3 8 0 14 -5 14 -6 0 -10 -13 -10 -30 1 -20 -7 -36 -23
-49 -23 -19 -23 -20 -5 -34 23 -17 13 -41 -12 -28 -9 5 -26 13 -37 17 -18 6
-18 8 -2 11 9 3 17 11 17 18 0 9 -6 12 -15 9 -9 -4 -15 0 -15 9 0 8 -6 17 -12
20 -10 3 -9 8 2 23 14 17 14 18 -2 6 -14 -12 -20 -11 -38 1 -24 17 -16 27 21
27 15 0 31 5 34 10 4 6 12 10 18 9 20 -4 137 23 137 31 0 4 -21 8 -47 9 -27 1
-49 6 -51 11 -2 6 -12 10 -23 10 -10 0 -19 5 -19 10 0 11 20 14 58 11 14 -1
22 4 22 13 0 9 6 13 15 10 8 -3 22 2 32 11 16 17 15 17 -18 10 -19 -4 -38 -10
-43 -12 -16 -10 -95 -12 -101 -3 -4 6 7 18 24 28 17 9 31 20 31 25 0 11 -15 8
-28 -5 -9 -9 -12 -9 -12 0 0 16 -27 15 -34 0 -5 -10 -7 -10 -12 0 -9 20 -143
16 -167 -5 -19 -17 -20 -17 -14 0 9 26 -44 23 -61 -3 -7 -11 -18 -20 -25 -20
-8 0 -8 3 2 9 21 13 4 31 -30 31 -22 0 -29 -5 -29 -20 0 -11 -5 -20 -11 -20
-6 0 -9 9 -6 20 4 15 0 20 -17 20 -12 0 -28 -9 -36 -20 -8 -11 -18 -20 -22
-20 -4 0 -8 9 -8 20 0 11 -4 20 -10 20 -5 0 -10 -6 -10 -14 0 -7 -6 -19 -13
-25 -11 -8 -13 -6 -13 12 l1 22 -1072 2 c-932 2 -1073 0 -1083 -12z m1534
-800 c3 -8 13 -15 22 -15 13 0 14 3 4 15 -11 13 -8 15 13 15 14 0 29 -5 32
-11 8 -12 87 -8 97 6 5 6 8 5 8 -2 0 -7 9 -13 20 -13 11 0 20 -4 20 -8 0 -4
14 -16 30 -25 17 -10 30 -15 30 -12 0 4 16 -2 36 -14 19 -12 42 -21 50 -21 8
0 14 -4 14 -9 0 -5 10 -11 21 -14 14 -4 20 -11 16 -20 -3 -8 1 -23 8 -34 8
-10 15 -26 15 -35 0 -10 7 -18 17 -18 15 0 15 -2 0 -17 -9 -11 -13 -28 -10
-44 5 -26 4 -27 -39 -22 -34 4 -47 1 -61 -15 -24 -27 -8 -63 24 -55 20 6 39
-10 39 -32 0 -5 -4 -4 -9 3 -7 11 -9 10 -15 -3 -4 -11 -12 -14 -26 -10 -25 8
-26 -6 -3 -57 14 -30 22 -38 37 -34 13 3 5 -9 -24 -39 l-43 -44 26 -7 c30 -7
32 -15 16 -47 -10 -18 -8 -24 13 -41 14 -12 28 -30 32 -41 6 -16 5 -18 -5 -7
-25 24 -48 14 -55 -23 -5 -30 -10 -35 -26 -29 -14 4 -18 2 -14 -5 5 -8 0 -8
-20 -1 -19 8 -30 8 -38 0 -5 -5 -20 -10 -32 -10 -13 0 -25 -4 -28 -9 -4 -5 3
-7 14 -4 11 3 20 1 20 -5 0 -12 -79 -29 -162 -35 -36 -2 -58 0 -58 7 0 6 -5 5
-12 -2 -7 -7 -15 -33 -18 -60 -5 -46 -6 -47 -38 -44 -23 1 -32 -2 -32 -13 0
-9 7 -18 15 -21 21 -9 19 -21 -6 -27 -12 -3 -22 0 -25 8 -5 11 -11 11 -30 3
-13 -6 -24 -15 -24 -20 0 -4 -11 -8 -25 -8 -14 0 -25 -5 -25 -10 0 -6 -8 -5
-20 2 -11 7 -20 16 -20 19 0 4 9 9 20 12 20 5 28 27 10 27 -5 0 -10 9 -10 20
0 13 -6 20 -14 18 -8 -2 -24 8 -37 22 -13 14 -33 27 -44 27 -142 13 -295 33
-316 41 -14 5 -37 8 -52 5 -20 -4 -27 -1 -27 11 0 9 -7 16 -15 16 -8 0 -15 9
-15 20 0 11 -7 20 -15 20 -8 0 -15 -6 -15 -14 0 -24 -20 -29 -62 -15 -36 12
-42 11 -53 -4 -7 -9 -22 -17 -34 -17 -14 0 -21 -6 -21 -18 0 -19 -18 -42 -33
-42 -12 0 3 44 19 53 8 4 14 23 14 42 0 25 4 34 18 34 9 1 34 4 55 7 33 5 37
9 37 35 0 16 5 29 11 29 6 0 9 16 7 38 -2 23 -8 36 -15 35 -7 -2 -13 4 -13 12
0 17 16 20 25 4 5 -7 13 -5 25 6 10 9 24 14 29 10 7 -3 11 3 11 16 0 21 -1 21
-18 6 -23 -21 -58 -22 -65 -3 -4 10 0 12 15 8 13 -3 24 1 30 12 5 9 20 16 33
16 22 0 24 3 19 29 -4 16 -1 32 5 35 6 4 18 23 26 42 15 37 35 45 35 14 0 -12
7 -20 16 -20 13 0 15 7 11 30 -5 23 -1 36 18 56 13 14 28 23 32 21 5 -3 10 6
11 20 1 14 9 31 19 38 9 7 13 17 9 23 -5 8 2 12 18 12 14 0 28 5 31 10 3 6 15
10 26 10 10 0 19 5 19 11 0 6 8 9 18 7 21 -6 42 8 58 37 7 12 22 20 37 20 31
1 68 31 60 51 -3 9 1 14 11 14 9 0 34 9 55 19 21 11 48 17 60 14 12 -3 21 -1
21 6 0 6 12 11 28 12 15 0 43 7 62 14 46 18 57 18 64 0z m-139 -1051 c19 -14
19 -16 2 -25 -22 -13 -13 -29 13 -22 16 4 20 0 20 -20 0 -14 5 -29 10 -32 6
-3 10 -21 10 -38 0 -18 9 -47 21 -66 11 -19 16 -37 11 -40 -5 -3 -12 -23 -16
-43 -5 -30 -4 -38 8 -38 12 0 12 -4 -1 -32 -18 -35 -20 -125 -4 -141 6 -6 11
-19 11 -29 0 -10 6 -18 14 -18 10 0 13 -10 11 -32 -4 -44 -14 -68 -30 -68 -9
0 -16 -20 -20 -57 -9 -81 -11 -87 -46 -112 -30 -22 -32 -22 -73 -7 -23 9 -51
16 -62 16 -11 0 -25 5 -32 12 -8 8 -15 8 -27 -2 -10 -8 -15 -9 -15 -1 0 6 -7
11 -15 11 -8 0 -15 -6 -15 -14 0 -18 -19 -24 -50 -16 -17 4 -27 15 -32 35 -4
20 -6 11 -4 -25 2 -30 9 -75 16 -100 6 -25 10 -74 7 -109 -5 -71 -20 -91 -67
-91 -17 0 -31 -8 -39 -23 -10 -19 -20 -23 -59 -22 -26 0 -49 -4 -51 -10 -2 -5
-16 -26 -31 -45 -15 -19 -33 -50 -41 -67 -14 -33 -32 -42 -44 -23 -4 6 -11 7
-17 4 -7 -4 -6 -9 2 -14 17 -11 3 -30 -21 -30 -16 0 -18 4 -11 17 7 12 5 21
-8 32 -10 9 -21 31 -25 49 -7 32 -6 33 20 26 25 -6 26 -5 13 15 -7 12 -19 19
-26 16 -7 -3 -11 -1 -8 4 3 4 -8 21 -24 37 -37 36 -37 44 -2 45 27 0 27 0 4
10 -18 7 -22 14 -17 29 4 14 2 20 -8 20 -24 0 -38 -26 -32 -57 5 -25 4 -24
-11 7 -10 21 -17 66 -19 115 -3 101 -9 118 -44 111 -14 -3 -21 -3 -14 0 8 3 9
14 3 34 -5 18 -5 32 1 36 6 4 6 11 -1 19 -7 8 -9 19 -5 25 4 6 -1 17 -11 24
-17 13 -16 15 4 41 23 29 29 51 12 40 -6 -4 -10 5 -10 19 0 16 -6 26 -15 26
-8 0 -15 -5 -15 -11 0 -7 -8 -18 -17 -25 -15 -11 -15 -15 -4 -23 9 -6 11 -18
6 -40 -5 -23 -2 -37 14 -57 12 -15 21 -31 21 -36 0 -17 -49 27 -50 44 0 9 -7
24 -16 32 -13 14 -13 16 -1 16 12 0 13 7 7 35 -4 20 -6 44 -3 54 7 26 -14 36
-22 11 -3 -11 -11 -20 -16 -20 -11 0 -12 33 0 46 13 14 24 114 11 114 -5 0
-10 -10 -10 -22 0 -17 -3 -19 -12 -10 -9 9 -9 18 0 37 15 32 16 75 2 75 -5 0
-10 7 -10 16 0 8 4 13 9 9 13 -7 26 15 14 24 -5 3 -10 17 -11 31 0 14 2 20 6
14 13 -21 48 -34 60 -22 7 7 10 6 9 -3 -1 -8 3 -14 8 -14 6 0 9 8 8 17 -2 10
9 25 23 34 24 16 27 16 54 -5 16 -11 38 -21 49 -21 11 0 23 -4 26 -10 3 -5 19
-10 36 -10 16 0 29 -5 29 -11 0 -7 7 -8 18 -4 28 11 52 15 147 25 121 12 129
14 137 24 4 6 15 6 30 -1 28 -12 70 10 61 33 -3 8 0 20 6 28 6 7 8 21 5 31 -7
18 -5 17 54 -21 8 -5 -24 -44 -35 -44 -7 0 -13 -7 -13 -15 0 -19 69 -13 84 8
7 8 20 16 31 19 12 2 19 10 17 20 -1 9 2 19 8 23 13 8 13 85 0 85 -5 0 -8 13
-7 30 1 16 8 30 15 30 6 0 12 10 12 21 0 19 4 21 30 15 23 -4 33 -1 42 14 15
24 17 24 43 4z m-100 -1364 c3 -5 12 -7 20 -3 9 3 15 -1 15 -11 0 -9 -7 -16
-16 -16 -9 0 -14 -6 -12 -12 3 -7 -1 -19 -9 -26 -19 -20 -16 -32 9 -32 17 0
19 -3 10 -12 -8 -8 -15 -8 -25 0 -8 7 -17 8 -23 3 -11 -11 -74 -2 -74 10 0 5
5 9 10 9 6 0 10 7 10 14 0 12 -6 13 -30 5 -23 -8 -30 -17 -31 -37 -1 -17 -3
-21 -6 -9 -5 21 -22 22 -29 2 -10 -25 -24 -17 -24 15 0 34 -25 41 -46 13 -7
-10 -16 -15 -20 -11 -4 4 -1 15 7 25 12 14 12 16 -1 11 -10 -4 -20 3 -27 18
-11 25 -7 29 25 25 8 -1 20 3 28 10 11 9 14 8 14 -4 0 -9 6 -22 13 -29 7 -7
17 -22 21 -33 7 -18 8 -19 17 -3 5 9 16 15 24 12 8 -4 17 0 20 8 4 10 15 13
30 10 18 -3 27 1 32 14 13 35 55 56 68 34z m-155 -301 c0 -5 14 -9 30 -9 17 0
30 -5 30 -12 0 -9 3 -9 9 1 7 12 13 12 24 3 7 -7 17 -9 20 -5 4 3 7 0 7 -8 0
-8 15 -32 34 -53 36 -39 39 -71 6 -61 -10 3 -21 1 -25 -5 -9 -14 -25 -13 -20
3 6 17 -21 51 -34 42 -6 -3 -9 -11 -6 -16 4 -5 -3 -9 -14 -9 -11 0 -25 8 -30
18 -10 16 -10 15 -11 -3 -1 -47 -59 -78 -61 -32 -1 21 -1 21 -8 -3 -7 -25 -7
-25 -19 -4 -9 18 -20 21 -60 20 -49 -2 -49 -2 -48 29 1 23 7 31 24 33 34 5 26
17 -10 17 -23 0 -33 5 -33 15 0 9 7 14 18 12 11 -2 17 4 17 17 0 13 6 19 19
18 12 -1 17 -7 13 -19 -5 -21 1 -22 29 -7 15 8 24 7 36 -3 15 -11 16 -10 10
10 -4 18 -2 22 9 18 8 -3 14 -1 14 4 0 5 7 7 15 4 8 -4 15 -10 15 -15z"/>
</g>
</svg>
