<?xml version="1.0" standalone="no"?>
<!DOCTYPE svg PUBLIC "-//W3C//DTD SVG 20010904//EN"
 "http://www.w3.org/TR/2001/REC-SVG-20010904/DTD/svg10.dtd">
<svg version="1.0" xmlns="http://www.w3.org/2000/svg"
 width="591.000000pt" height="447.000000pt" viewBox="0 0 591.000000 447.000000"
 preserveAspectRatio="xMidYMid meet">

<g transform="translate(0.000000,447.000000) scale(0.100000,-0.100000)"
fill="#000000" stroke="none">
<path d="M0 2235 l0 -2235 1194 0 1194 0 -80 77 c-113 110 -202 223 -245 312
-31 64 -37 87 -37 144 -1 66 0 70 34 98 19 15 52 43 72 60 21 17 51 54 68 83
28 49 29 59 31 170 1 88 4 119 14 123 17 6 9 30 -22 63 -13 14 -23 28 -23 32
0 4 -13 29 -28 55 -47 79 -100 213 -122 306 -18 77 -75 256 -99 312 -5 11 -15
35 -22 54 -7 19 -15 29 -17 23 -6 -19 -26 -14 -40 9 -13 21 -8 59 9 59 5 0 9
5 9 10 0 6 -7 10 -15 10 -21 0 -37 -47 -29 -83 4 -20 3 -27 -5 -23 -6 4 -11
20 -11 37 0 16 -9 48 -19 72 -26 55 -60 170 -70 230 -8 45 -7 49 20 68 32 22
38 16 12 -13 -11 -12 -12 -18 -4 -18 7 0 21 10 30 22 18 21 18 20 24 -58 3
-43 11 -96 17 -116 21 -71 30 -41 24 81 -3 86 -1 137 10 183 8 35 18 91 22
126 7 63 24 86 24 33 0 -17 4 -33 10 -36 5 -3 9 2 8 12 -3 38 3 52 23 58 15 5
18 10 10 18 -19 19 -12 27 23 27 26 0 36 5 41 20 5 14 15 20 38 20 18 0 27 4
21 8 -6 4 -13 15 -17 25 -6 16 -1 18 55 15 37 -2 63 -8 66 -16 2 -7 -6 -12
-23 -12 -44 0 -19 -17 52 -35 38 -10 109 -39 158 -65 50 -26 117 -53 150 -60
33 -7 64 -17 70 -22 5 -4 15 -8 22 -8 15 0 14 35 -1 58 -7 12 -4 12 15 2 22
-11 22 -11 9 3 -19 20 -165 97 -183 97 -8 0 -20 6 -26 14 -7 8 -24 17 -39 21
-14 3 -45 15 -69 26 -25 11 -64 19 -97 19 -31 0 -56 5 -56 10 0 6 -9 10 -21
10 -11 0 -18 -4 -15 -9 7 -11 -47 -9 -55 2 -8 11 -87 -19 -125 -48 -19 -14
-36 -40 -43 -62 -10 -37 -10 -36 -7 20 2 37 8 62 17 68 8 5 9 9 3 9 -13 0 -13
148 0 169 5 7 3 18 -2 23 -8 8 -8 17 -1 30 6 11 12 52 15 91 5 101 13 145 28
176 7 14 17 47 20 74 4 26 11 47 17 47 5 0 9 7 9 15 0 13 7 27 56 112 11 18
25 33 32 33 6 0 12 7 12 15 0 8 9 15 20 15 11 0 20 5 20 10 0 6 1 13 1 18 2
10 65 52 79 52 5 0 29 9 53 19 23 10 50 22 60 25 10 3 16 10 13 15 -3 5 5 12
19 15 14 4 25 11 25 16 0 6 7 10 16 10 9 0 12 5 8 12 -5 8 0 9 14 6 12 -4 24
-2 27 3 3 4 11 6 18 3 7 -2 23 7 35 20 23 28 61 41 92 33 11 -3 20 -1 20 5 0
6 17 8 40 6 22 -2 40 0 40 4 0 4 15 1 33 -6 50 -23 71 -29 81 -27 5 1 24 -13
43 -30 34 -34 42 -33 21 1 -7 10 -9 22 -6 25 13 13 49 -7 64 -36 8 -16 19 -27
24 -24 4 3 11 -1 13 -7 4 -9 8 -10 14 -2 4 6 18 10 31 9 12 -1 22 3 22 8 0 5
15 6 34 3 24 -5 35 -3 38 6 4 10 8 10 21 -1 15 -12 17 -11 17 4 0 11 5 15 15
11 8 -3 15 -1 15 4 0 6 5 10 11 10 6 0 24 9 39 20 20 14 31 17 36 9 5 -8 10
-7 16 5 12 22 31 20 48 -4 8 -11 22 -20 32 -20 10 0 18 -4 18 -10 0 -5 13 -10
30 -10 16 0 33 -6 37 -13 4 -6 22 -19 38 -27 42 -21 59 -40 60 -64 0 -28 14
-48 27 -40 7 5 9 2 5 -8 -3 -9 1 -24 8 -35 13 -17 14 -16 15 15 0 17 5 32 10
32 6 0 10 -6 8 -12 -1 -7 10 -25 25 -41 16 -15 26 -31 23 -36 -3 -4 3 -16 14
-26 11 -10 20 -27 20 -38 0 -20 0 -20 14 -2 13 18 15 17 50 -18 19 -20 40 -37
45 -37 5 0 11 -8 15 -17 6 -20 28 -55 38 -63 5 -4 27 -50 33 -70 1 -3 8 -21
17 -41 20 -47 35 -160 36 -278 1 -52 4 -107 7 -122 3 -15 2 -30 -4 -33 -6 -4
-6 -18 -1 -36 5 -16 6 -38 3 -48 -2 -11 0 -23 7 -27 8 -5 7 -10 -4 -18 -9 -7
-17 -24 -18 -38 -2 -30 -28 -29 -28 0 0 10 -14 30 -30 46 -29 28 -35 29 -133
32 -56 1 -121 5 -145 8 -30 4 -46 2 -56 -8 -8 -8 -41 -17 -73 -21 -32 -3 -93
-18 -135 -32 -83 -27 -131 -69 -141 -123 l-5 -26 19 24 c14 18 19 19 19 7 0
-19 4 -20 32 -5 12 6 35 12 52 13 35 3 116 24 131 35 6 4 44 18 85 32 41 13
77 27 78 32 2 4 10 7 18 7 20 0 17 18 -3 23 -10 2 18 5 62 5 80 1 145 -12 145
-29 0 -5 -8 -9 -17 -9 -14 0 -15 -2 -5 -9 7 -4 25 -6 39 -3 18 3 24 1 19 -7
-5 -7 4 -15 23 -22 17 -6 29 -15 26 -19 -3 -5 3 -11 12 -13 14 -4 13 -5 -4 -6
-31 -1 -29 -16 2 -19 19 -1 28 4 34 21 5 13 5 25 -2 28 -5 4 -7 15 -3 25 10
25 24 6 29 -41 3 -22 13 -76 22 -120 19 -90 21 -255 3 -255 -4 0 -6 -8 -6 -17
1 -10 -2 -36 -6 -58 l-8 -40 17 30 c29 52 65 148 65 172 0 13 6 23 15 23 8 0
19 9 25 20 6 12 16 17 26 13 11 -4 15 0 12 13 -2 12 4 20 17 22 15 3 17 1 8
-9 -6 -8 -14 -41 -18 -74 -7 -55 -30 -131 -83 -275 -22 -58 -36 -72 -44 -42
-7 27 -65 35 -71 11 -4 -14 2 -19 31 -21 23 -2 38 -9 40 -18 4 -21 -47 -25
-54 -5 -7 18 -24 20 -24 3 0 -7 6 -25 14 -40 13 -24 12 -27 -2 -30 -10 -2 -22
3 -29 12 -11 13 -12 13 -13 -3 0 -28 -32 -137 -39 -133 -3 2 -6 -15 -6 -37 -1
-100 -89 -332 -187 -489 -34 -54 -49 -132 -69 -356 -12 -133 -11 -147 6 -195
21 -60 53 -114 105 -177 58 -71 79 -112 100 -194 37 -144 28 -187 -53 -250
l-32 -26 1073 0 1072 0 0 2235 0 2235 -2955 0 -2955 0 0 -2235z m1760 536 c29
-42 51 -108 55 -168 4 -57 -9 -69 -35 -33 -25 35 -38 25 -30 -22 5 -24 6 -46
4 -50 -3 -4 7 -28 21 -52 20 -34 24 -49 17 -63 -16 -29 -59 -65 -66 -55 -3 5
-11 76 -18 156 -9 107 -9 149 -1 157 8 8 6 20 -8 43 -24 39 -25 92 -1 105 27
16 39 13 62 -18z m2517 -65 c-3 -8 -1 -17 6 -19 7 -2 -4 -12 -23 -21 -19 -9
-27 -14 -18 -12 10 3 20 1 23 -4 4 -6 -2 -10 -12 -10 -10 0 -27 -7 -37 -15
-11 -8 -24 -15 -30 -15 -6 0 0 7 12 16 12 8 20 19 17 24 -6 10 42 70 57 70 6
0 8 -6 5 -14z m-987 -140 c0 -2 -8 -10 -17 -17 -16 -13 -17 -12 -4 4 13 16 21
21 21 13z"/>
<path d="M3518 2673 c6 -2 18 -2 25 0 6 3 1 5 -13 5 -14 0 -19 -2 -12 -5z"/>
<path d="M2665 2500 c3 -5 8 -10 11 -10 2 0 4 5 4 10 0 6 -5 10 -11 10 -5 0
-7 -4 -4 -10z"/>
<path d="M2130 2467 c-19 -6 -40 -18 -46 -26 -7 -9 -16 -11 -25 -6 -8 5 -11 5
-7 1 3 -4 -8 -21 -25 -38 l-32 -30 24 -19 c13 -10 36 -19 52 -19 18 0 32 -7
39 -19 5 -11 19 -19 30 -18 22 1 28 17 8 17 -7 1 -3 9 10 19 12 11 22 25 22
32 0 15 30 38 51 39 11 0 18 -12 23 -38 8 -56 44 -85 105 -86 42 -1 55 4 81
29 17 16 33 39 36 51 l6 22 36 -21 c39 -22 104 -84 78 -74 -8 3 -18 2 -21 -3
-4 -6 3 -10 14 -10 12 0 24 0 28 -1 14 -1 14 19 1 33 -7 8 -24 27 -38 42 l-25
28 43 -21 c57 -29 67 -17 20 23 -58 50 -128 84 -198 95 -82 14 -244 12 -290
-2z m230 -169 c0 -11 -12 -10 -30 2 -12 7 -10 9 8 7 12 0 22 -5 22 -9z"/>
<path d="M3400 2455 c-67 -14 -154 -59 -175 -91 -19 -30 -18 -30 41 3 l49 26
-29 -31 c-42 -45 -25 -51 24 -9 57 48 77 52 85 16 17 -76 134 -108 187 -51 14
15 29 37 33 50 9 32 59 28 63 -5 2 -13 9 -23 17 -23 8 0 11 -7 8 -19 -6 -24
34 -36 54 -15 12 12 64 20 77 12 5 -4 46 34 46 42 0 4 -11 5 -25 2 -20 -3 -25
0 -25 15 0 23 -20 43 -70 68 -28 14 -63 18 -170 20 -74 1 -160 -3 -190 -10z
m70 -85 c0 -5 -2 -10 -4 -10 -3 0 -8 5 -11 10 -3 6 -1 10 4 10 6 0 11 -4 11
-10z m-8 -46 c-7 -12 -11 -13 -17 -4 -4 7 -2 16 6 21 18 11 23 4 11 -17z"/>
<path d="M3260 2299 c0 -5 5 -7 10 -4 6 3 10 8 10 11 0 2 -4 4 -10 4 -5 0 -10
-5 -10 -11z"/>
<path d="M3955 1890 c-3 -5 -1 -10 4 -10 6 0 11 5 11 10 0 6 -2 10 -4 10 -3 0
-8 -4 -11 -10z"/>
<path d="M3103 1624 c-17 -9 -34 -22 -37 -30 -7 -19 8 -18 24 1 7 8 23 15 36
15 15 0 24 6 24 15 0 19 -7 19 -47 -1z"/>
<path d="M2746 1621 c-6 -10 46 -44 81 -53 20 -5 21 -4 13 13 -10 18 -59 49
-79 49 -5 0 -12 -4 -15 -9z"/>
<path d="M3202 1219 c-18 -6 -240 -21 -302 -20 -19 1 -91 2 -160 4 -69 2 -145
1 -170 -3 -47 -6 -45 -8 20 -30 28 -10 390 -7 553 5 64 4 127 15 155 26 26 10
43 19 37 19 -32 5 -119 4 -133 -1z"/>
<path d="M3561 1019 c-19 -21 -40 -39 -48 -39 -12 0 -38 -48 -30 -56 2 -2 21
15 43 39 64 70 77 87 73 92 -3 2 -20 -14 -38 -36z"/>
</g>
</svg>
